# xmcd
#
# Track frame offsets:
#	150
#	15611
#	40253
#	57048
#	67435
#	84481
#	109348
#	122706
#	148054
#	169080
#	184791
#	201995
#
# Disc length: 2927 seconds
#
# Revision: 2
# Processed by: cddbd v1.5.2PL0 Copyright (c) Steve Scherf et al.
# Submitted via: EasyCDDAExtractor 15.2.5.1
#
DISCID=b10b6d0c
DTITLE=황종률 - 1집 Blue and blue (2002)
DYEAR=2002
DGENRE=Pop
TTITLE0=When I Was
TTITLE1=The Way To Heaven
TTITLE2=Some Day
TTITLE3=낮잠
TTITLE4=Out of Tollgate
TTITLE5=Summer Rain
TTITLE6=풍선여행
TTITLE7=Old Photography and Lost Memory
TTITLE8=분수무지개
TTITLE9=안녕하세요!
TTITLE10="Are Ye Able" Said The Master
TTITLE11=Blue and Blue (천국에서 다시 만나요)
EXTD=
EXTT0=
EXTT1=
EXTT2=
EXTT3=
EXTT4=
EXTT5=
EXTT6=
EXTT7=
EXTT8=
EXTT9=
EXTT10=
EXTT11=
PLAYORDER=
